<svg xmlns="http://www.w3.org/2000/svg" width="264" height="55" viewBox="0 0 264 55"><g><g><g><text dominant-baseline="text-before-edge" style="line-height:16px" fill="#fff" font-family="'OpenSans','OpenSans-Light'" font-size="18" font-style="none" font-weight="lighter" transform="translate(0 36)"><tspan style="font-kerning:normal">The Big Bang Publicity Campaign</tspan></text></g></g><g opacity=".65"><path fill="#fff" d="M139.944 6.928a.582.582 0 0 0-.833 0l-7.117 6.916-7.117-6.916a.582.582 0 0 0-.833 0l-.905.88a.549.549 0 0 0-.181.404c0 .153.06.288.18.405l8.44 8.2a.58.58 0 0 0 .832 0l8.44-8.2a.55.55 0 0 0 .18-.405.55.55 0 0 0-.18-.404zm0-6.758a.582.582 0 0 0-.833 0l-7.117 6.916L124.877.17a.582.582 0 0 0-.833 0l-.905.88a.55.55 0 0 0-.181.405c0 .152.06.287.18.404l8.44 8.201a.58.58 0 0 0 .832 0l8.44-8.2a.55.55 0 0 0 .18-.405.55.55 0 0 0-.18-.405z"/></g></g></svg>