<svg xmlns="http://www.w3.org/2000/svg" width="13" height="25" viewBox="0 0 13 25"><g><g><path fill="#fff" d="M12.347 6.351a.769.769 0 0 0-.174.03L6.427 7.853 8.908.9c.049-.1.073-.19.073-.27a.605.605 0 0 0-.189-.443.633.633 0 0 0-.464-.188H3.569a.645.645 0 0 0-.406.135.644.644 0 0 0-.232.346L.014 12.869c-.048.24.015.436.19.586a.66.66 0 0 0 .449.165.757.757 0 0 0 .174-.014l5.89-1.518L3.86 24.224a.587.587 0 0 0 .066.45c.082.14.205.236.37.286.096.02.164.03.203.03.28 0 .483-.125.61-.376l7.834-17.377a.579.579 0 0 0-.102-.66.67.67 0 0 0-.493-.226z"/></g></g></svg>