<svg xmlns="http://www.w3.org/2000/svg" width="15" height="16" viewBox="0 0 15 16"><g><g opacity=".5"><path fill="#fff" d="M6.349 11.076c-1.112 0-2.064-.42-2.854-1.263-.791-.841-1.186-1.855-1.186-3.04 0-1.184.395-2.197 1.186-3.039.79-.842 1.742-1.263 2.854-1.263s2.064.421 2.854 1.263c.79.842 1.186 1.855 1.186 3.04 0 1.184-.395 2.198-1.186 3.04-.79.841-1.742 1.262-2.854 1.262zm5.23-.47c.746-1.146 1.119-2.424 1.119-3.832 0-.916-.167-1.791-.5-2.627a6.805 6.805 0 0 0-1.353-2.16A6.334 6.334 0 0 0 8.815.545 5.912 5.912 0 0 0 6.35.013c-.86 0-1.682.177-2.467.533a6.334 6.334 0 0 0-2.029 1.44A6.805 6.805 0 0 0 .5 4.147 7.018 7.018 0 0 0 0 6.774c0 .915.167 1.79.5 2.627a6.807 6.807 0 0 0 1.353 2.16 6.339 6.339 0 0 0 2.03 1.441 5.915 5.915 0 0 0 2.466.533 5.918 5.918 0 0 0 3.598-1.191l3.094 3.285c.216.243.487.364.811.364.313 0 .583-.121.812-.364.228-.244.343-.532.343-.865 0-.34-.112-.627-.334-.864z"/></g></g></svg>